ffmpeg version N-82167-g5e96558 Copyright (c) 2000-2016 the FFmpeg developers
  built with gcc 5.4.0 (Ubuntu 5.4.0-6ubuntu1~16.04.2) 20160609
  configuration: --prefix=/root/ffmpeg_build --pkg-config-flags=--static --extra-cflags=-I/root/ffmpeg_build/include --extra-ldflags=-L/root/ffmpeg_build/lib --bindir=/root/bin --enable-gpl --enable-libass --enable-libfdk-aac --enable-libfreetype --enable-libmp3lame --enable-libopus --enable-libtheora --enable-libvorbis --enable-libx264 --enable-libx265 --enable-nonfree
  libavutil      55. 35.100 / 55. 35.100
  libavcodec     57. 65.100 / 57. 65.100
  libavformat    57. 57.100 / 57. 57.100
  libavdevice    57.  2.100 / 57.  2.100
  libavfilter     6. 66.100 /  6. 66.100
  libswscale      4.  3.100 /  4.  3.100
  libswresample   2.  4.100 /  2.  4.100
  libpostproc    54.  2.100 / 54.  2.100
Input #0, matroska,webm, from '/media/yubikiri/bot/queue/3AnimePahe_Detective_Conan_-_053_720p_Fansub.mkv':
  Metadata:
    title           : 3|Text||0|0
    ALBUM           : Anime
    LANGUAGE        : Undefined
    ENCODER         : Lavf57.57.100
  Duration: 00:24:27.43, start: 0.000000, bitrate: 982 kb/s
    Stream #0:0: Video: mpeg4 (Advanced Simple Profile), yuv420p, 640x480 [SAR 1:1 DAR 4:3], 23.98 fps, 23.98 tbr, 1k tbn, 23.98 tbc (default)
    Metadata:
      DURATION        : 00:24:27.425000000
    Stream #0:1: Audio: mp3, 48000 Hz, stereo, s16p, 128 kb/s (default)
    Metadata:
      DURATION        : 00:24:27.360000000
[libx264 @ 0x2736020] using SAR=1/1
[libx264 @ 0x2736020] using cpu capabilities: MMX2 SSE2Fast SSSE3 SSE4.2 AVX FMA3 AVX2 LZCNT BMI2
[libx264 @ 0x2736020] profile High, level 3.1
[libx264 @ 0x2736020] 264 - core 148 r2643 5c65704 - H.264/MPEG-4 AVC codec - Copyleft 2003-2015 - http://www.videolan.org/x264.html - options: cabac=1 ref=8 deblock=1:1:1 analyse=0x3:0x133 me=umh subme=7 psy=1 psy_rd=0.00:0.00 mixed_ref=1 me_range=8 chroma_me=1 trellis=0 8x8dct=1 cqm=0 deadzone=21,11 fast_pskip=1 chroma_qp_offset=0 threads=8 lookahead_threads=2 sliced_threads=0 nr=0 decimate=1 interlaced=0 bluray_compat=0 constrained_intra=0 bframes=3 b_pyramid=2 b_adapt=2 b_bias=0 direct=1 weightb=1 open_gop=0 weightp=2 keyint=240 keyint_min=24 scenecut=40 intra_refresh=0 rc_lookahead=60 rc=crf mbtree=1 crf=27.0 qcomp=0.60 qpmin=0 qpmax=69 qpstep=4 ip_ratio=1.40 aq=1:1.00
[libfdk_aac @ 0x26c99e0] Note, the VBR setting is unsupported and only works with some parameter combinations
Output #0, mp4, to '/media/yubikiri/bot/queue/3AnimePahe_Detective_Conan_-_053_720p_Fansub.mkv_encoded.mp4':
  Metadata:
    encoder         : Lavf57.57.100
    Stream #0:0: Video: h264 (libx264) ([33][0][0][0] / 0x0021), yuv420p, 640x480 [SAR 1:1 DAR 4:3], q=-1--1, 23.98 fps, 24k tbn, 23.98 tbc (default)
    Metadata:
      encoder         : Lavc57.65.100 libx264
    Side data:
      cpb: bitrate max/min/avg: 0/0/0 buffer size: 0 vbv_delay: -1
    Stream #0:1: Audio: aac (libfdk_aac) (HE-AACv2) ([64][0][0][0] / 0x0040), 48000 Hz, stereo, s16, 48 kb/s (default)
    Metadata:
      encoder         : Lavc57.65.100 libfdk_aac
Stream mapping:
  Stream #0:0 -> #0:0 (mpeg4 (native) -> h264 (libx264))
  Stream #0:1 -> #0:1 (mp3 (native) -> aac (libfdk_aac))
Press [q] to stop, [?] for help
frame=  104 fps=0.0 q=32.0 size=      84kB time=00:00:04.50 bitrate= 152.9kbits/s dup=1 drop=0 speed=8.78x    frame=  152 fps=148 q=32.0 size=     254kB time=00:00:06.50 bitrate= 320.1kbits/s dup=1 drop=0 speed=6.35x    frame=  200 fps=128 q=32.0 size=     382kB time=00:00:08.51 bitrate= 367.6kbits/s dup=1 drop=0 speed=5.47x    frame=  251 fps=121 q=32.0 size=     518kB time=00:00:10.64 bitrate= 398.9kbits/s dup=1 drop=0 speed=5.14x    frame=  307 fps=119 q=32.0 size=     637kB time=00:00:12.95 bitrate= 403.2kbits/s dup=1 drop=0 speed=5.03x    frame=  368 fps=119 q=32.0 size=     768kB time=00:00:15.51 bitrate= 405.4kbits/s dup=1 drop=0 speed=5.03x    frame=  386 fps=108 q=32.0 size=     808kB time=00:00:16.23 bitrate= 407.5kbits/s dup=1 drop=0 speed=4.52x    frame=  427 fps=104 q=32.0 size=     942kB time=00:00:17.98 bitrate= 429.1kbits/s dup=1 drop=0 speed=4.38x    frame=  481 fps=104 q=32.0 size=    1069kB time=00:00:20.24 bitrate= 432.4kbits/s dup=1 drop=0 speed=4.38x    frame=  544 fps=106 q=32.0 size=    1197kB time=00:00:22.89 bitrate= 428.4kbits/s dup=1 drop=0 speed=4.47x    frame=  597 fps=106 q=32.0 size=    1311kB time=00:00:25.06 bitrate= 428.3kbits/s dup=1 drop=0 speed=4.46x    frame=  632 fps=103 q=32.0 size=    1412kB time=00:00:26.51 bitrate= 436.2kbits/s dup=1 drop=0 speed=4.33x    frame=  702 fps=106 q=32.0 size=    1493kB time=00:00:29.41 bitrate= 415.9kbits/s dup=1 drop=0 speed=4.44x    frame=  767 fps=108 q=32.0 size=    1571kB time=00:00:32.15 bitrate= 400.2kbits/s dup=1 drop=0 speed=4.52x    frame=  817 fps=107 q=32.0 size=    1676kB time=00:00:34.24 bitrate= 401.1kbits/s dup=1 drop=0 speed=4.49x    frame=  859 fps=106 q=32.0 size=    1764kB time=00:00:35.99 bitrate= 401.5kbits/s dup=1 drop=0 speed=4.43x    frame=  911 fps=105 q=32.0 size=    1831kB time=00:00:38.16 bitrate= 393.0kbits/s dup=1 drop=0 speed=4.42x    frame=  965 fps=104 q=32.0 size=    1896kB time=00:00:40.42 bitrate= 384.2kbits/s dup=1 drop=0 speed=4.37x    frame=  987 fps=101 q=32.0 size=    2043kB time=00:00:41.32 bitrate= 405.0kbits/s dup=1 drop=0 speed=4.24x    frame= 1026 fps=100 q=32.0 size=    2163kB time=00:00:42.94 bitrate= 412.7kbits/s dup=1 drop=0 speed=4.19x    frame= 1088 fps=101 q=32.0 size=    2312kB time=00:00:45.54 bitrate= 415.9kbits/s dup=1 drop=0 speed=4.22x    frame= 1155 fps=102 q=32.0 size=    2460kB time=00:00:48.32 bitrate= 417.0kbits/s dup=1 drop=0 speed=4.28x    frame= 1191 fps=101 q=32.0 size=    2592kB time=00:00:49.81 bitrate= 426.3kbits/s dup=1 drop=0 speed=4.21x    frame= 1231 fps=100 q=32.0 size=    2717kB time=00:00:51.52 bitrate= 432.0kbits/s dup=1 drop=0 speed=4.18x    frame= 1268 fps= 99 q=32.0 size=    2828kB time=00:00:53.05 bitrate= 436.7kbits/s dup=1 drop=0 speed=4.14x    frame= 1308 fps= 98 q=32.0 size=    2940kB time=00:00:54.72 bitrate= 440.2kbits/s dup=1 drop=0 speed= 4.1x    frame= 1389 fps=100 q=32.0 size=    3065kB time=00:00:58.09 bitrate= 432.3kbits/s dup=1 drop=0 speed= 4.2x    frame= 1474 fps=103 q=32.0 size=    3168kB time=00:01:01.63 bitrate= 421.1kbits/s dup=1 drop=0 speed= 4.3x    frame= 1527 fps=103 q=32.0 size=    3273kB time=00:01:03.85 bitrate= 420.0kbits/s dup=1 drop=0 speed=4.29x    frame= 1582 fps=103 q=32.0 size=    3362kB time=00:01:06.15 bitrate= 416.3kbits/s dup=1 drop=0 speed= 4.3x    frame= 1629 fps=102 q=32.0 size=    3475kB time=00:01:08.11 bitrate= 417.9kbits/s dup=1 drop=0 speed=4.29x    frame= 1680 fps=102 q=32.0 size=    3585kB time=00:01:10.20 bitrate= 418.3kbits/s dup=1 drop=0 speed=4.28x    frame= 1731 fps=102 q=32.0 size=    3694kB time=00:01:12.34 bitrate= 418.3kbits/s dup=1 drop=0 speed=4.27x    frame= 1820 fps=104 q=32.0 size=    3824kB time=00:01:16.09 bitrate= 411.7kbits/s dup=1 drop=0 speed=4.36x    frame= 1894 fps=106 q=32.0 size=    3956kB time=00:01:19.16 bitrate= 409.4kbits/s dup=1 drop=0 speed=4.41x    frame= 1962 fps=106 q=32.0 size=    4071kB time=00:01:21.98 bitrate= 406.8kbits/s dup=1 drop=0 speed=4.45x    frame= 2007 fps=106 q=32.0 size=    4173kB time=00:01:23.86 bitrate= 407.7kbits/s dup=1 drop=0 speed=4.43x    frame= 2035 fps=105 q=32.0 size=    4283kB time=00:01:25.01 bitrate= 412.7kbits/s dup=1 drop=0 speed=4.37x    frame= 2066 fps=103 q=32.0 size=    4447kB time=00:01:26.33 bitrate= 421.9kbits/s dup=1 drop=0 speed=4.32x    frame= 2098 fps=102 q=32.0 size=    4558kB time=00:01:27.65 bitrate= 425.9kbits/s dup=1 drop=0 speed=4.27x    frame= 2154 fps=102 q=32.0 size=    4681kB time=00:01:30.00 bitrate= 426.0kbits/s dup=1 drop=0 speed=4.28x    frame= 2218 fps=103 q=32.0 size=    4783kB time=00:01:32.65 bitrate= 422.9kbits/s dup=1 drop=0 speed= 4.3x    frame= 2342 fps=106 q=32.0 size=    4886kB time=00:01:37.85 bitrate= 409.0kbits/s dup=1 drop=0 speed=4.44x    frame= 2465 fps=109 q=32.0 size=    5005kB time=00:01:42.97 bitrate= 398.2kbits/s dup=1 drop=0 speed=4.57x    frame= 2568 fps=111 q=32.0 size=    5133kB time=00:01:47.24 bitrate= 392.1kbits/s dup=1 drop=0 speed=4.65x    frame= 2637 fps=112 q=32.0 size=    5246kB time=00:01:50.14 bitrate= 390.2kbits/s dup=1 drop=0 speed=4.67x    frame= 2681 fps=111 q=32.0 size=    5336kB time=00:01:51.97 bitrate= 390.4kbits/s dup=1 drop=0 speed=4.65x    frame= 2736 fps=111 q=32.0 size=    5460kB time=00:01:54.28 bitrate= 391.4kbits/s dup=1 drop=0 speed=4.65x    frame= 2805 fps=112 q=32.0 size=    5585kB time=00:01:57.18 bitrate= 390.5kbits/s dup=1 drop=0 speed=4.67x    frame= 2866 fps=112 q=32.0 size=    5657kB time=00:01:59.70 bitrate= 387.2kbits/s dup=1 drop=0 speed=4.68x    frame= 2929 fps=112 q=32.0 size=    5762kB time=00:02:02.34 bitrate= 385.8kbits/s dup=1 drop=0 speed=4.68x    frame= 3010 fps=113 q=32.0 size=    5857kB time=00:02:05.71 bitrate= 381.6kbits/s dup=1 drop=0 speed=4.72x    frame= 3082 fps=114 q=32.0 size=    5945kB time=00:02:08.70 bitrate= 378.4kbits/s dup=1 drop=0 speed=4.74x    frame= 3145 fps=114 q=32.0 size=    6011kB time=00:02:11.30 bitrate= 375.0kbits/s dup=1 drop=0 speed=4.75x    frame= 3190 fps=113 q=32.0 size=    6135kB time=00:02:13.18 bitrate= 377.3kbits/s dup=1 drop=0 speed=4.73x    frame= 3252 fps=114 q=32.0 size=    6235kB time=00:02:15.78 bitrate= 376.2kbits/s dup=1 drop=0 speed=4.74x    frame= 3294 fps=113 q=32.0 size=    6366kB time=00:02:17.53 bitrate= 379.2kbits/s dup=1 drop=0 speed=4.72x    frame= 3358 fps=113 q=32.0 size=    6491kB time=00:02:20.22 bitrate= 379.2kbits/s dup=1 drop=0 speed=4.73x    frame= 3447 fps=114 q=32.0 size=    6568kB time=00:02:23.93 bitrate= 373.8kbits/s dup=1 drop=0 speed=4.77x    frame= 3503 fps=114 q=32.0 size=    6673kB time=00:02:26.24 bitrate= 373.8kbits/s dup=1 drop=0 speed=4.77x    frame= 3569 fps=115 q=32.0 size=    6801kB time=00:02:29.01 bitrate= 373.9kbits/s dup=1 drop=0 speed=4.78x    frame= 3633 fps=115 q=32.0 size=    6953kB time=00:02:31.65 bitrate= 375.6kbits/s dup=1 drop=0 speed=4.79x    frame= 3700 fps=115 q=32.0 size=    7082kB time=00:02:34.47 bitrate= 375.6kbits/s dup=1 drop=0 speed=4.79x    frame= 3759 fps=115 q=32.0 size=    7194kB time=00:02:36.95 bitrate= 375.5kbits/s dup=1 drop=0 speed=4.79x    frame= 3817 fps=115 q=29.0 size=    7293kB time=00:02:39.33 bitrate= 375.0kbits/s dup=1 drop=0 speed=4.79x    frame= 3879 fps=115 q=32.0 size=    7402kB time=00:02:41.94 bitrate= 374.4kbits/s dup=1 drop=0 speed= 4.8x    frame= 3912 fps=114 q=32.0 size=    7512kB time=00:02:43.30 bitrate= 376.8kbits/s dup=1 drop=0 speed=4.77x    frame= 3942 fps=113 q=32.0 size=    7602kB time=00:02:44.58 bitrate= 378.4kbits/s dup=1 drop=0 speed=4.73x    frame= 4008 fps=114 q=32.0 size=    7744kB time=00:02:47.31 bitrate= 379.1kbits/s dup=1 drop=0 speed=4.74x    frame= 4075 fps=114 q=32.0 size=    7847kB time=00:02:50.09 bitrate= 377.9kbits/s dup=1 drop=0 speed=4.75x    frame= 4137 fps=114 q=32.0 size=    7953kB time=00:02:52.69 bitrate= 377.2kbits/s dup=1 drop=0 speed=4.76x    frame= 4206 fps=114 q=32.0 size=    8069kB time=00:02:55.59 bitrate= 376.4kbits/s dup=1 drop=0 speed=4.77x    frame= 4265 fps=114 q=32.0 size=    8187kB time=00:02:58.07 bitrate= 376.6kbits/s dup=1 drop=0 speed=4.77x    frame= 4325 fps=114 q=32.0 size=    8255kB time=00:03:00.54 bitrate= 374.5kbits/s dup=1 drop=0 speed=4.76x    frame= 4416 fps=115 q=32.0 size=    8359kB time=00:03:04.29 bitrate= 371.5kbits/s dup=1 drop=0 speed= 4.8x    frame= 4481 fps=115 q=32.0 size=    8495kB time=00:03:07.07 bitrate= 372.0kbits/s dup=1 drop=0 speed=4.81x    frame= 4561 fps=116 q=32.0 size=    8611kB time=00:03:10.40 bitrate= 370.5kbits/s dup=1 drop=0 speed=4.83x    frame= 4633 fps=116 q=32.0 size=    8767kB time=00:03:13.38 bitrate= 371.4kbits/s dup=1 drop=0 speed=4.84x    frame= 4698 fps=116 q=32.0 size=    8913kB time=00:03:16.11 bitrate= 372.3kbits/s dup=1 drop=0 speed=4.84x    frame= 4784 fps=117 q=32.0 size=    9004kB time=00:03:19.70 bitrate= 369.4kbits/s dup=1 drop=0 speed=4.87x    frame= 4878 fps=118 q=32.0 size=    9090kB time=00:03:23.62 bitrate= 365.7kbits/s dup=1 drop=0 speed=4.91x    frame= 4942 fps=118 q=32.0 size=    9230kB time=00:03:26.27 bitrate= 366.6kbits/s dup=1 drop=0 speed=4.91x    frame= 4995 fps=117 q=32.0 size=    9334kB time=00:03:28.49 bitrate= 366.7kbits/s dup=1 drop=0 speed= 4.9x    frame= 5063 fps=118 q=32.0 size=    9437kB time=00:03:31.30 bitrate= 365.8kbits/s dup=1 drop=0 speed=4.91x    frame= 5112 fps=117 q=32.0 size=    9556kB time=00:03:33.39 bitrate= 366.8kbits/s dup=1 drop=0 speed= 4.9x    frame= 5180 fps=118 q=32.0 size=    9667kB time=00:03:36.21 bitrate= 366.3kbits/s dup=1 drop=0 speed=4.91x    frame= 5233 fps=117 q=32.0 size=    9788kB time=00:03:38.43 bitrate= 367.1kbits/s dup=1 drop=0 speed= 4.9x    frame= 5309 fps=118 q=32.0 size=    9879kB time=00:03:41.59 bitrate= 365.2kbits/s dup=1 drop=0 speed=4.92x    frame= 5371 fps=118 q=32.0 size=    9970kB time=00:03:44.19 bitrate= 364.3kbits/s dup=1 drop=0 speed=4.92x    frame= 5439 fps=118 q=32.0 size=   10083kB time=00:03:47.00 bitrate= 363.9kbits/s dup=1 drop=0 speed=4.93x    frame= 5514 fps=118 q=32.0 size=   10200kB time=00:03:50.12 bitrate= 363.1kbits/s dup=1 drop=0 speed=4.94x    frame= 5572 fps=118 q=32.0 size=   10339kB time=00:03:52.55 bitrate= 364.2kbits/s dup=1 drop=0 speed=4.94x    frame= 5671 fps=119 q=32.0 size=   10460kB time=00:03:56.69 bitrate= 362.0kbits/s dup=1 drop=0 speed=4.97x    frame= 5747 fps=119 q=32.0 size=   10582kB time=00:03:59.85 bitrate= 361.4kbits/s dup=1 drop=0 speed=4.98x    frame= 5812 fps=119 q=32.0 size=   10699kB time=00:04:02.58 bitrate= 361.3kbits/s dup=1 drop=0 speed=4.99x    frame= 5895 fps=120 q=32.0 size=   10813kB time=00:04:06.03 bitrate= 360.0kbits/s dup=1 drop=0 speed=5.01x    frame= 5968 fps=120 q=32.0 size=   10916kB time=00:04:09.06 bitrate= 359.0kbits/s dup=1 drop=0 speed=5.02x    frame= 6044 fps=121 q=32.0 size=   10986kB time=00:04:12.22 bitrate= 356.8kbits/s dup=1 drop=0 speed=5.03x    frame= 6116 fps=121 q=32.0 size=   11053kB time=00:04:15.25 bitrate= 354.7kbits/s dup=1 drop=0 speed=5.04x    frame= 6184 fps=121 q=32.0 size=   11122kB time=00:04:18.07 bitrate= 353.0kbits/s dup=1 drop=0 speed=5.04x    frame= 6240 fps=121 q=32.0 size=   11248kB time=00:04:20.41 bitrate= 353.8kbits/s dup=1 drop=0 speed=5.04x    frame= 6307 fps=121 q=32.0 size=   11340kB time=00:04:23.19 bitrate= 353.0kbits/s dup=1 drop=0 speed=5.04x    frame= 6368 fps=121 q=32.0 size=   11430kB time=00:04:25.75 bitrate= 352.3kbits/s dup=1 drop=0 speed=5.04x    frame= 6441 fps=121 q=32.0 size=   11539kB time=00:04:28.77 bitrate= 351.7kbits/s dup=1 drop=0 speed=5.05x    frame= 6503 fps=121 q=32.0 size=   11669kB time=00:04:31.38 bitrate= 352.2kbits/s dup=1 drop=0 speed=5.05x    frame= 6548 fps=121 q=32.0 size=   11769kB time=00:04:33.25 bitrate= 352.8kbits/s dup=1 drop=0 speed=5.04x    frame= 6604 fps=121 q=32.0 size=   11901kB time=00:04:35.60 bitrate= 353.7kbits/s dup=1 drop=0 speed=5.04x    frame= 6696 fps=121 q=32.0 size=   11984kB time=00:04:39.44 bitrate= 351.3kbits/s dup=1 drop=0 speed=5.06x    frame= 6784 fps=122 q=32.0 size=   12058kB time=00:04:43.11 bitrate= 348.9kbits/s dup=1 drop=0 speed=5.08x    frame= 6857 fps=122 q=32.0 size=   12160kB time=00:04:46.14 bitrate= 348.1kbits/s dup=1 drop=0 speed=5.09x    frame= 6943 fps=122 q=32.0 size=   12297kB time=00:04:49.77 bitrate= 347.6kbits/s dup=1 drop=0 speed= 5.1x    frame= 7024 fps=123 q=32.0 size=   12431kB time=00:04:53.09 bitrate= 347.4kbits/s dup=1 drop=0 speed=5.12x    frame= 7113 fps=123 q=32.0 size=   12532kB time=00:04:56.81 bitrate= 345.9kbits/s dup=1 drop=0 speed=5.14x    frame= 7187 fps=123 q=32.0 size=   12636kB time=00:04:59.92 bitrate= 345.1kbits/s dup=1 drop=0 speed=5.15x    frame= 7264 fps=124 q=32.0 size=   12713kB time=00:05:03.12 bitrate= 343.6kbits/s dup=1 drop=0 speed=5.16x    frame= 7311 fps=123 q=32.0 size=   12780kB time=00:05:05.08 bitrate= 343.2kbits/s dup=1 drop=0 speed=5.15x    frame= 7361 fps=123 q=32.0 size=   12848kB time=00:05:07.17 bitrate= 342.6kbits/s dup=1 drop=0 speed=5.14x    frame= 7423 fps=123 q=32.0 size=   12933kB time=00:05:09.78 bitrate= 342.0kbits/s dup=1 drop=0 speed=5.14x    frame= 7505 fps=123 q=32.0 size=   13053kB time=00:05:13.19 bitrate= 341.4kbits/s dup=1 drop=0 speed=5.15x    frame= 7590 fps=124 q=32.0 size=   13115kB time=00:05:16.73 bitrate= 339.2kbits/s dup=1 drop=0 speed=5.16x    frame= 7645 fps=124 q=32.0 size=   13215kB time=00:05:18.99 bitrate= 339.4kbits/s dup=1 drop=0 speed=5.16x    frame= 7715 fps=124 q=32.0 size=   13273kB time=00:05:21.94 bitrate= 337.7kbits/s dup=1 drop=0 speed=5.16x    frame= 7783 fps=124 q=32.0 size=   13376kB time=00:05:24.75 bitrate= 337.4kbits/s dup=1 drop=0 speed=5.17x    frame= 7855 fps=124 q=32.0 size=   13435kB time=00:05:27.78 bitrate= 335.8kbits/s dup=1 drop=0 speed=5.17x    frame= 7925 fps=124 q=32.0 size=   13537kB time=00:05:30.68 bitrate= 335.3kbits/s dup=1 drop=0 speed=5.18x    frame= 8009 fps=124 q=32.0 size=   13610kB time=00:05:34.18 bitrate= 333.6kbits/s dup=1 drop=0 speed=5.19x    frame= 8080 fps=125 q=32.0 size=   13669kB time=00:05:37.17 bitrate= 332.1kbits/s dup=1 drop=0 speed= 5.2x    frame= 8152 fps=125 q=32.0 size=   13755kB time=00:05:40.16 bitrate= 331.3kbits/s dup=1 drop=0 speed= 5.2x    frame= 8221 fps=125 q=32.0 size=   13821kB time=00:05:43.01 bitrate= 330.1kbits/s dup=1 drop=0 speed=5.21x    frame= 8286 fps=125 q=32.0 size=   13950kB time=00:05:45.75 bitrate= 330.5kbits/s dup=1 drop=0 speed=5.21x    frame= 8369 fps=125 q=32.0 size=   14025kB time=00:05:49.20 bitrate= 329.0kbits/s dup=1 drop=0 speed=5.22x    frame= 8449 fps=125 q=32.0 size=   14129kB time=00:05:52.57 bitrate= 328.3kbits/s dup=1 drop=0 speed=5.23x    frame= 8510 fps=125 q=32.0 size=   14218kB time=00:05:55.09 bitrate= 328.0kbits/s dup=1 drop=0 speed=5.23x    frame= 8572 fps=125 q=32.0 size=   14296kB time=00:05:57.65 bitrate= 327.4kbits/s dup=1 drop=0 speed=5.23x    frame= 8671 fps=126 q=32.0 size=   14388kB time=00:06:01.83 bitrate= 325.8kbits/s dup=1 drop=0 speed=5.25x    frame= 8763 fps=126 q=32.0 size=   14497kB time=00:06:05.63 bitrate= 324.8kbits/s dup=1 drop=0 speed=5.27x    frame= 8861 fps=127 q=32.0 size=   14642kB time=00:06:09.72 bitrate= 324.4kbits/s dup=1 drop=0 speed=5.29x    frame= 8948 fps=127 q=32.0 size=   14732kB time=00:06:13.35 bitrate= 323.3kbits/s dup=1 drop=0 speed= 5.3x    frame= 9043 fps=127 q=32.0 size=   14809kB time=00:06:17.32 bitrate= 321.5kbits/s dup=1 drop=0 speed=5.32x    frame= 9144 fps=128 q=32.0 size=   14929kB time=00:06:21.54 bitrate= 320.5kbits/s dup=1 drop=0 speed=5.34x    frame= 9233 fps=128 q=32.0 size=   15011kB time=00:06:25.25 bitrate= 319.2kbits/s dup=1 drop=0 speed=5.35x    frame= 9312 fps=128 q=32.0 size=   15156kB time=00:06:28.54 bitrate= 319.6kbits/s dup=1 drop=0 speed=5.36x    frame= 9403 fps=129 q=32.0 size=   15244kB time=00:06:32.34 bitrate= 318.3kbits/s dup=1 drop=0 speed=5.38x    frame= 9495 fps=129 q=32.0 size=   15327kB time=00:06:36.18 bitrate= 316.9kbits/s dup=1 drop=0 speed=5.39x    frame= 9583 fps=130 q=32.0 size=   15444kB time=00:06:39.85 bitrate= 316.4kbits/s dup=1 drop=0 speed= 5.4x    frame= 9676 fps=130 q=32.0 size=   15551kB time=00:06:43.73 bitrate= 315.5kbits/s dup=1 drop=0 speed=5.42x    frame= 9769 fps=130 q=32.0 size=   15642kB time=00:06:47.61 bitrate= 314.4kbits/s dup=1 drop=0 speed=5.44x    frame= 9845 fps=130 q=32.0 size=   15753kB time=00:06:50.77 bitrate= 314.2kbits/s dup=1 drop=0 speed=5.44x    frame= 9920 fps=130 q=32.0 size=   15860kB time=00:06:53.88 bitrate= 313.9kbits/s dup=1 drop=0 speed=5.44x    frame= 9991 fps=131 q=32.0 size=   15936kB time=00:06:56.87 bitrate= 313.2kbits/s dup=1 drop=0 speed=5.45x    frame=10073 fps=131 q=32.0 size=   16041kB time=00:07:00.28 bitrate= 312.7kbits/s dup=1 drop=0 speed=5.46x    frame=10150 fps=131 q=32.0 size=   16120kB time=00:07:03.48 bitrate= 311.8kbits/s dup=1 drop=0 speed=5.46x    frame=10228 fps=131 q=32.0 size=   16176kB time=00:07:06.73 bitrate= 310.5kbits/s dup=1 drop=0 speed=5.47x    frame=10277 fps=131 q=32.0 size=   16323kB time=00:07:08.82 bitrate= 311.8kbits/s dup=1 drop=0 speed=5.46x    frame=10362 fps=131 q=32.0 size=   16434kB time=00:07:12.32 bitrate= 311.4kbits/s dup=1 drop=0 speed=5.47x    frame=10453 fps=131 q=32.0 size=   16520kB time=00:07:16.11 bitrate= 310.3kbits/s dup=1 drop=0 speed=5.48x    frame=10526 fps=131 q=32.0 size=   16657kB time=00:07:19.19 bitrate= 310.7kbits/s dup=1 drop=0 speed=5.49x    frame=10622 fps=132 q=32.0 size=   16741kB time=00:07:23.20 bitrate= 309.4kbits/s dup=1 drop=0 speed= 5.5x    frame=10714 fps=132 q=32.0 size=   16850kB time=00:07:27.04 bitrate= 308.8kbits/s dup=1 drop=0 speed=5.51x    frame=10805 fps=132 q=32.0 size=   16967kB time=00:07:30.79 bitrate= 308.3kbits/s dup=1 drop=0 speed=5.53x    frame=10887 fps=133 q=32.0 size=   17040kB time=00:07:34.25 bitrate= 307.3kbits/s dup=1 drop=0 speed=5.53x    frame=10949 fps=133 q=32.0 size=   17129kB time=00:07:36.81 bitrate= 307.2kbits/s dup=1 drop=0 speed=5.53x    frame=10996 fps=132 q=32.0 size=   17221kB time=00:07:38.77 bitrate= 307.5kbits/s dup=1 drop=0 speed=5.52x    frame=11043 fps=132 q=32.0 size=   17304kB time=00:07:40.73 bitrate= 307.7kbits/s dup=1 drop=0 speed=5.51x    frame=11094 fps=132 q=32.0 size=   17386kB time=00:07:42.87 bitrate= 307.7kbits/s dup=1 drop=0 speed= 5.5x    frame=11160 fps=132 q=32.0 size=   17485kB time=00:07:45.64 bitrate= 307.6kbits/s dup=1 drop=0 speed= 5.5x    frame=11233 fps=132 q=32.0 size=   17640kB time=00:07:48.67 bitrate= 308.3kbits/s dup=1 drop=0 speed= 5.5x    frame=11293 fps=132 q=32.0 size=   17735kB time=00:07:51.14 bitrate= 308.4kbits/s dup=1 drop=0 speed= 5.5x    frame=11347 fps=132 q=32.0 size=   17859kB time=00:07:53.40 bitrate= 309.0kbits/s dup=1 drop=0 speed=5.49x    frame=11407 fps=132 q=32.0 size=   17982kB time=00:07:55.92 bitrate= 309.5kbits/s dup=1 drop=0 speed=5.49x    frame=11453 fps=131 q=32.0 size=   18090kB time=00:07:57.84 bitrate= 310.1kbits/s dup=1 drop=0 speed=5.48x    frame=11525 fps=131 q=32.0 size=   18203kB time=00:08:00.83 bitrate= 310.1kbits/s dup=1 drop=0 speed=5.48x    frame=11599 fps=131 q=32.0 size=   18301kB time=00:08:03.94 bitrate= 309.8kbits/s dup=1 drop=0 speed=5.48x    frame=11675 fps=132 q=32.0 size=   18387kB time=00:08:07.10 bitrate= 309.2kbits/s dup=1 drop=0 speed=5.49x    frame=11749 fps=132 q=32.0 size=   18467kB time=00:08:10.21 bitrate= 308.6kbits/s dup=1 drop=0 speed=5.49x    frame=11796 fps=131 q=32.0 size=   18542kB time=00:08:12.13 bitrate= 308.6kbits/s dup=1 drop=0 speed=5.48x    frame=11828 fps=131 q=32.0 size=   18694kB time=00:08:13.46 bitrate= 310.3kbits/s dup=1 drop=0 speed=5.47x    frame=11903 fps=131 q=32.0 size=   18802kB time=00:08:16.61 bitrate= 310.2kbits/s dup=1 drop=0 speed=5.47x    frame=11994 fps=131 q=32.0 size=   18883kB time=00:08:20.41 bitrate= 309.1kbits/s dup=1 drop=0 speed=5.48x    frame=12085 fps=132 q=32.0 size=   18962kB time=00:08:24.21 bitrate= 308.1kbits/s dup=1 drop=0 speed=5.49x    frame=12166 fps=132 q=32.0 size=   19074kB time=00:08:27.58 bitrate= 307.8kbits/s dup=1 drop=0 speed= 5.5x    frame=12244 fps=132 q=32.0 size=   19148kB time=00:08:30.82 bitrate= 307.1kbits/s dup=1 drop=0 speed= 5.5x    frame=12324 fps=132 q=32.0 size=   19222kB time=00:08:34.15 bitrate= 306.3kbits/s dup=1 drop=0 speed=5.51x    frame=12411 fps=132 q=32.0 size=   19328kB time=00:08:37.78 bitrate= 305.8kbits/s dup=1 drop=0 speed=5.52x    frame=12487 fps=132 q=32.0 size=   19396kB time=00:08:40.98 bitrate= 305.0kbits/s dup=1 drop=0 speed=5.52x    frame=12552 fps=132 q=32.0 size=   19482kB time=00:08:43.67 bitrate= 304.8kbits/s dup=1 drop=0 speed=5.52x    frame=12607 fps=132 q=32.0 size=   19566kB time=00:08:45.97 bitrate= 304.7kbits/s dup=1 drop=0 speed=5.52x    frame=12695 fps=132 q=32.0 size=   19660kB time=00:08:49.64 bitrate= 304.1kbits/s dup=1 drop=0 speed=5.53x    frame=12774 fps=133 q=32.0 size=   19725kB time=00:08:52.92 bitrate= 303.2kbits/s dup=1 drop=0 speed=5.53x    frame=12828 fps=132 q=32.0 size=   19848kB time=00:08:55.19 bitrate= 303.8kbits/s dup=1 drop=0 speed=5.53x    frame=12900 fps=132 q=32.0 size=   19943kB time=00:08:58.21 bitrate= 303.6kbits/s dup=1 drop=0 speed=5.53x    frame=12984 fps=133 q=32.0 size=   20016kB time=00:09:01.71 bitrate= 302.7kbits/s dup=1 drop=0 speed=5.54x    frame=13077 fps=133 q=32.0 size=   20092kB time=00:09:05.55 bitrate= 301.7kbits/s dup=1 drop=0 speed=5.55x    frame=13172 fps=133 q=32.0 size=   20211kB time=00:09:09.56 bitrate= 301.3kbits/s dup=1 drop=0 speed=5.56x    frame=13239 fps=133 q=32.0 size=   20296kB time=00:09:12.34 bitrate= 301.0kbits/s dup=1 drop=0 speed=5.56x    frame=13291 fps=133 q=32.0 size=   20365kB time=00:09:14.47 bitrate= 300.9kbits/s dup=1 drop=0 speed=5.55x    frame=13346 fps=133 q=32.0 size=   20435kB time=00:09:16.77 bitrate= 300.7kbits/s dup=1 drop=0 speed=5.55x    frame=13398 fps=133 q=32.0 size=   20497kB time=00:09:18.99 bitrate= 300.4kbits/s dup=1 drop=0 speed=5.54x    frame=13449 fps=133 q=32.0 size=   20592kB time=00:09:21.08 bitrate= 300.6kbits/s dup=1 drop=0 speed=5.53x    frame=13532 fps=133 q=32.0 size=   20693kB time=00:09:24.54 bitrate= 300.3kbits/s dup=1 drop=0 speed=5.54x    frame=13632 fps=133 q=32.0 size=   20763kB time=00:09:28.72 bitrate= 299.1kbits/s dup=1 drop=0 speed=5.55x    frame=13700 fps=133 q=32.0 size=   20834kB time=00:09:31.54 bitrate= 298.6kbits/s dup=1 drop=0 speed=5.55x    frame=13757 fps=133 q=32.0 size=   20911kB time=00:09:33.93 bitrate= 298.5kbits/s dup=1 drop=0 speed=5.55x    frame=13813 fps=133 q=32.0 size=   20978kB time=00:09:36.27 bitrate= 298.2kbits/s dup=1 drop=0 speed=5.54x    frame=13878 fps=133 q=32.0 size=   21059kB time=00:09:38.96 bitrate= 298.0kbits/s dup=1 drop=0 speed=5.54x    frame=13942 fps=133 q=32.0 size=   21155kB time=00:09:41.65 bitrate= 297.9kbits/s dup=1 drop=0 speed=5.54x    frame=13995 fps=133 q=32.0 size=   21235kB time=00:09:43.87 bitrate= 297.9kbits/s dup=1 drop=0 speed=5.54x    frame=14050 fps=133 q=32.0 size=   21321kB time=00:09:46.13 bitrate= 298.0kbits/s dup=1 drop=0 speed=5.53x    frame=14107 fps=132 q=32.0 size=   21387kB time=00:09:48.52 bitrate= 297.7kbits/s dup=1 drop=0 speed=5.53x    frame=14159 fps=132 q=32.0 size=   21460kB time=00:09:50.69 bitrate= 297.6kbits/s dup=1 drop=0 speed=5.52x    frame=14248 fps=133 q=32.0 size=   21595kB time=00:09:54.41 bitrate= 297.6kbits/s dup=1 drop=0 speed=5.53x    frame=14343 fps=133 q=32.0 size=   21670kB time=00:09:58.37 bitrate= 296.7kbits/s dup=1 drop=0 speed=5.54x    frame=14432 fps=133 q=32.0 size=   21773kB time=00:10:02.09 bitrate= 296.2kbits/s dup=1 drop=0 speed=5.55x    frame=14507 fps=133 q=32.0 size=   21884kB time=00:10:05.20 bitrate= 296.2kbits/s dup=1 drop=0 speed=5.55x    frame=14597 fps=133 q=32.0 size=   21996kB time=00:10:08.96 bitrate= 295.9kbits/s dup=1 drop=0 speed=5.56x    frame=14684 fps=133 q=32.0 size=   22088kB time=00:10:12.58 bitrate= 295.4kbits/s dup=1 drop=0 speed=5.57x    frame=14780 fps=134 q=32.0 size=   22189kB time=00:10:16.59 bitrate= 294.8kbits/s dup=1 drop=0 speed=5.58x    frame=14870 fps=134 q=32.0 size=   22268kB time=00:10:20.39 bitrate= 294.0kbits/s dup=1 drop=0 speed=5.59x    frame=14970 fps=134 q=32.0 size=   22364kB time=00:10:24.53 bitrate= 293.4kbits/s dup=1 drop=0 speed= 5.6x    frame=15057 fps=134 q=32.0 size=   22474kB time=00:10:28.16 bitrate= 293.1kbits/s dup=1 drop=0 speed=5.61x    frame=15152 fps=135 q=32.0 size=   22592kB time=00:10:32.12 bitrate= 292.8kbits/s dup=1 drop=0 speed=5.62x    frame=15249 fps=135 q=32.0 size=   22686kB time=00:10:36.18 bitrate= 292.1kbits/s dup=1 drop=0 speed=5.63x    frame=15347 fps=135 q=32.0 size=   22822kB time=00:10:40.23 bitrate= 292.0kbits/s dup=1 drop=0 speed=5.64x    frame=15420 fps=135 q=32.0 size=   22907kB time=00:10:43.30 bitrate= 291.7kbits/s dup=1 drop=0 speed=5.64x    frame=15474 fps=135 q=32.0 size=   22990kB time=00:10:45.56 bitrate= 291.7kbits/s dup=1 drop=0 speed=5.63x    frame=15516 fps=135 q=32.0 size=   23101kB time=00:10:47.31 bitrate= 292.4kbits/s dup=1 drop=0 speed=5.62x    frame=15567 fps=135 q=32.0 size=   23224kB time=00:10:49.45 bitrate= 292.9kbits/s dup=1 drop=0 speed=5.62x    frame=15656 fps=135 q=32.0 size=   23301kB time=00:10:53.12 bitrate= 292.3kbits/s dup=1 drop=0 speed=5.62x    frame=15727 fps=135 q=32.0 size=   23389kB time=00:10:56.10 bitrate= 292.0kbits/s dup=1 drop=0 speed=5.62x    frame=15798 fps=135 q=32.0 size=   23460kB time=00:10:59.05 bitrate= 291.6kbits/s dup=1 drop=0 speed=5.62x    frame=15856 fps=135 q=32.0 size=   23591kB time=00:11:01.48 bitrate= 292.2kbits/s dup=1 drop=0 speed=5.62x    frame=15946 fps=135 q=32.0 size=   23673kB time=00:11:05.23 bitrate= 291.5kbits/s dup=1 drop=0 speed=5.63x    frame=16019 fps=135 q=32.0 size=   23774kB time=00:11:08.26 bitrate= 291.4kbits/s dup=1 drop=0 speed=5.63x    frame=16087 fps=135 q=32.0 size=   23855kB time=00:11:11.12 bitrate= 291.2kbits/s dup=1 drop=0 speed=5.63x    frame=16156 fps=135 q=32.0 size=   23933kB time=00:11:13.98 bitrate= 290.9kbits/s dup=1 drop=0 speed=5.63x    frame=16240 fps=135 q=32.0 size=   24066kB time=00:11:17.48 bitrate= 291.0kbits/s dup=1 drop=0 speed=5.64x    frame=16341 fps=135 q=32.0 size=   24135kB time=00:11:21.70 bitrate= 290.0kbits/s dup=1 drop=0 speed=5.65x    frame=16409 fps=135 q=32.0 size=   24232kB time=00:11:24.56 bitrate= 290.0kbits/s dup=1 drop=0 speed=5.65x    frame=16464 fps=135 q=32.0 size=   24295kB time=00:11:26.82 bitrate= 289.8kbits/s dup=1 drop=0 speed=5.64x    frame=16518 fps=135 q=32.0 size=   24353kB time=00:11:29.04 bitrate= 289.5kbits/s dup=1 drop=0 speed=5.64x    frame=16576 fps=135 q=32.0 size=   24449kB time=00:11:31.52 bitrate= 289.6kbits/s dup=1 drop=0 speed=5.63x    frame=16626 fps=135 q=32.0 size=   24512kB time=00:11:33.61 bitrate= 289.5kbits/s dup=1 drop=0 speed=5.63x    frame=16678 fps=135 q=32.0 size=   24586kB time=00:11:35.74 bitrate= 289.5kbits/s dup=1 drop=0 speed=5.62x    frame=16726 fps=135 q=32.0 size=   24653kB time=00:11:37.79 bitrate= 289.4kbits/s dup=1 drop=0 speed=5.62x    frame=16783 fps=135 q=32.0 size=   24743kB time=00:11:40.13 bitrate= 289.5kbits/s dup=1 drop=0 speed=5.61x    frame=16839 fps=134 q=32.0 size=   24815kB time=00:11:42.48 bitrate= 289.4kbits/s dup=1 drop=0 speed=5.61x    frame=16915 fps=134 q=32.0 size=   24917kB time=00:11:45.64 bitrate= 289.3kbits/s dup=1 drop=0 speed=5.61x    frame=17020 fps=135 q=32.0 size=   25009kB time=00:11:50.03 bitrate= 288.5kbits/s dup=1 drop=0 speed=5.62x    frame=17107 fps=135 q=32.0 size=   25096kB time=00:11:53.66 bitrate= 288.1kbits/s dup=1 drop=0 speed=5.63x    frame=17209 fps=135 q=32.0 size=   25184kB time=00:11:57.93 bitrate= 287.4kbits/s dup=1 drop=0 speed=5.64x    frame=17315 fps=135 q=32.0 size=   25281kB time=00:12:02.36 bitrate= 286.7kbits/s dup=1 drop=0 speed=5.65x    frame=17421 fps=136 q=32.0 size=   25368kB time=00:12:06.76 bitrate= 285.9kbits/s dup=1 drop=0 speed=5.66x    frame=17518 fps=136 q=32.0 size=   25498kB time=00:12:10.81 bitrate= 285.8kbits/s dup=1 drop=0 speed=5.67x    frame=17614 fps=136 q=32.0 size=   25597kB time=00:12:14.82 bitrate= 285.4kbits/s dup=1 drop=0 speed=5.68x    frame=17702 fps=136 q=32.0 size=   25680kB time=00:12:18.49 bitrate= 284.9kbits/s dup=1 drop=0 speed=5.69x    frame=17783 fps=136 q=32.0 size=   25785kB time=00:12:21.86 bitrate= 284.7kbits/s dup=1 drop=0 speed=5.69x    frame=17865 fps=136 q=32.0 size=   25857kB time=00:12:25.28 bitrate= 284.2kbits/s dup=1 drop=0 speed=5.69x    frame=17957 fps=137 q=32.0 size=   25968kB time=00:12:29.12 bitrate= 284.0kbits/s dup=1 drop=0 speed= 5.7x    frame=18002 fps=136 q=32.0 size=   26067kB time=00:12:30.99 bitrate= 284.3kbits/s dup=1 drop=0 speed=5.69x    frame=18090 fps=137 q=32.0 size=   26181kB time=00:12:34.66 bitrate= 284.2kbits/s dup=1 drop=0 speed= 5.7x    frame=18166 fps=137 q=32.0 size=   26319kB time=00:12:37.78 bitrate= 284.5kbits/s dup=1 drop=0 speed= 5.7x    frame=18239 fps=137 q=32.0 size=   26428kB time=00:12:40.85 bitrate= 284.5kbits/s dup=1 drop=0 speed= 5.7x    frame=18330 fps=137 q=32.0 size=   26566kB time=00:12:44.65 bitrate= 284.6kbits/s dup=1 drop=0 speed=5.71x    frame=18425 fps=137 q=32.0 size=   26649kB time=00:12:48.61 bitrate= 284.0kbits/s dup=1 drop=0 speed=5.72x    frame=18531 fps=137 q=32.0 size=   26752kB time=00:12:53.05 bitrate= 283.5kbits/s dup=1 drop=0 speed=5.73x    frame=18623 fps=137 q=32.0 size=   26867kB time=00:12:56.89 bitrate= 283.3kbits/s dup=1 drop=0 speed=5.73x    frame=18718 fps=138 q=32.0 size=   26935kB time=00:13:00.86 bitrate= 282.6kbits/s dup=1 drop=0 speed=5.74x    frame=18781 fps=138 q=32.0 size=   27040kB time=00:13:03.46 bitrate= 282.7kbits/s dup=1 drop=0 speed=5.74x    frame=18830 fps=137 q=32.0 size=   27108kB time=00:13:05.51 bitrate= 282.7kbits/s dup=1 drop=0 speed=5.73x    frame=18909 fps=137 q=32.0 size=   27239kB time=00:13:08.84 bitrate= 282.9kbits/s dup=1 drop=0 speed=5.74x    frame=18992 fps=138 q=32.0 size=   27323kB time=00:13:12.29 bitrate= 282.5kbits/s dup=1 drop=0 speed=5.74x    frame=19084 fps=138 q=32.0 size=   27428kB time=00:13:16.13 bitrate= 282.2kbits/s dup=1 drop=0 speed=5.75x    frame=19169 fps=138 q=32.0 size=   27502kB time=00:13:19.63 bitrate= 281.8kbits/s dup=1 drop=0 speed=5.75x    frame=19249 fps=138 q=32.0 size=   27578kB time=00:13:23.00 bitrate= 281.3kbits/s dup=1 drop=0 speed=5.75x    frame=19338 fps=138 q=32.0 size=   27678kB time=00:13:26.72 bitrate= 281.1kbits/s dup=1 drop=0 speed=5.76x    frame=19429 fps=138 q=32.0 size=   27775kB time=00:13:30.51 bitrate= 280.7kbits/s dup=1 drop=0 speed=5.77x    frame=19506 fps=138 q=32.0 size=   27872kB time=00:13:33.76 bitrate= 280.6kbits/s dup=1 drop=0 speed=5.77x    frame=19586 fps=138 q=32.0 size=   27944kB time=00:13:37.04 bitrate= 280.2kbits/s dup=1 drop=0 speed=5.77x    frame=19667 fps=138 q=32.0 size=   28058kB time=00:13:40.45 bitrate= 280.2kbits/s dup=1 drop=0 speed=5.77x    frame=19740 fps=138 q=32.0 size=   28151kB time=00:13:43.48 bitrate= 280.0kbits/s dup=1 drop=0 speed=5.78x    frame=19804 fps=138 q=32.0 size=   28240kB time=00:13:46.13 bitrate= 280.0kbits/s dup=1 drop=0 speed=5.77x    frame=19867 fps=138 q=32.0 size=   28317kB time=00:13:48.77 bitrate= 279.9kbits/s dup=1 drop=0 speed=5.77x    frame=19950 fps=138 q=32.0 size=   28425kB time=00:13:52.23 bitrate= 279.8kbits/s dup=1 drop=0 speed=5.78x    frame=19999 fps=138 q=32.0 size=   28543kB time=00:13:54.28 bitrate= 280.3kbits/s dup=1 drop=0 speed=5.77x    frame=20074 fps=138 q=32.0 size=   28636kB time=00:13:57.39 bitrate= 280.1kbits/s dup=1 drop=0 speed=5.77x    frame=20156 fps=138 q=32.0 size=   28753kB time=00:14:00.85 bitrate= 280.1kbits/s dup=1 drop=0 speed=5.77x    frame=20219 fps=138 q=32.0 size=   28822kB time=00:14:03.45 bitrate= 279.9kbits/s dup=1 drop=0 speed=5.77x    frame=20278 fps=138 q=32.0 size=   28881kB time=00:14:05.93 bitrate= 279.7kbits/s dup=1 drop=0 speed=5.77x    frame=20332 fps=138 q=32.0 size=   28964kB time=00:14:08.19 bitrate= 279.7kbits/s dup=1 drop=0 speed=5.76x    frame=20399 fps=138 q=32.0 size=   29063kB time=00:14:10.96 bitrate= 279.8kbits/s dup=1 drop=0 speed=5.76x    frame=20492 fps=138 q=32.0 size=   29129kB time=00:14:14.84 bitrate= 279.1kbits/s dup=1 drop=0 speed=5.77x    frame=20555 fps=138 q=32.0 size=   29256kB time=00:14:17.45 bitrate= 279.5kbits/s dup=1 drop=0 speed=5.77x    frame=20601 fps=138 q=32.0 size=   29336kB time=00:14:19.37 bitrate= 279.7kbits/s dup=1 drop=0 speed=5.76x    frame=20652 fps=138 q=32.0 size=   29430kB time=00:14:21.54 bitrate= 279.8kbits/s dup=1 drop=0 speed=5.75x    frame=20732 fps=138 q=32.0 size=   29491kB time=00:14:24.87 bitrate= 279.3kbits/s dup=1 drop=0 speed=5.76x    frame=20761 fps=138 q=32.0 size=   29575kB time=00:14:26.07 bitrate= 279.7kbits/s dup=1 drop=0 speed=5.75x    frame=20803 fps=138 q=32.0 size=   29664kB time=00:14:27.81 bitrate= 280.0kbits/s dup=1 drop=0 speed=5.74x    frame=20887 fps=138 q=32.0 size=   29769kB time=00:14:31.31 bitrate= 279.9kbits/s dup=1 drop=0 speed=5.74x    frame=20969 fps=138 q=32.0 size=   29858kB time=00:14:34.73 bitrate= 279.6kbits/s dup=1 drop=0 speed=5.75x    frame=21039 fps=138 q=32.0 size=   29957kB time=00:14:37.67 bitrate= 279.6kbits/s dup=1 drop=0 speed=5.75x    frame=21124 fps=138 q=32.0 size=   30071kB time=00:14:41.21 bitrate= 279.5kbits/s dup=1 drop=0 speed=5.75x    frame=21196 fps=138 q=32.0 size=   30201kB time=00:14:44.20 bitrate= 279.8kbits/s dup=1 drop=0 speed=5.75x    frame=21258 fps=138 q=32.0 size=   30299kB time=00:14:46.80 bitrate= 279.9kbits/s dup=1 drop=0 speed=5.75x    frame=21300 fps=138 q=32.0 size=   30391kB time=00:14:48.55 bitrate= 280.2kbits/s dup=1 drop=0 speed=5.74x    frame=21365 fps=138 q=32.0 size=   30480kB time=00:14:51.24 bitrate= 280.2kbits/s dup=1 drop=0 speed=5.74x    frame=21421 fps=137 q=32.0 size=   30576kB time=00:14:53.59 bitrate= 280.3kbits/s dup=1 drop=0 speed=5.73x    frame=21474 fps=137 q=32.0 size=   30709kB time=00:14:55.80 bitrate= 280.8kbits/s dup=1 drop=0 speed=5.73x    frame=21513 fps=137 q=32.0 size=   30832kB time=00:14:57.43 bitrate= 281.4kbits/s dup=1 drop=0 speed=5.72x    frame=21572 fps=137 q=32.0 size=   30988kB time=00:14:59.86 bitrate= 282.1kbits/s dup=1 drop=0 speed=5.72x    frame=21624 fps=137 q=32.0 size=   31156kB time=00:15:02.08 bitrate= 282.9kbits/s dup=1 drop=0 speed=5.72x    frame=21672 fps=137 q=32.0 size=   31255kB time=00:15:04.04 bitrate= 283.2kbits/s dup=1 drop=0 speed=5.71x    frame=21734 fps=137 q=32.0 size=   31340kB time=00:15:06.64 bitrate= 283.2kbits/s dup=1 drop=0 speed=5.71x    frame=21774 fps=137 q=32.0 size=   31416kB time=00:15:08.31 bitrate= 283.3kbits/s dup=1 drop=0 speed= 5.7x    frame=21817 fps=136 q=32.0 size=   31499kB time=00:15:10.10 bitrate= 283.5kbits/s dup=1 drop=0 speed=5.69x    frame=21869 fps=136 q=32.0 size=   31585kB time=00:15:12.27 bitrate= 283.6kbits/s dup=1 drop=0 speed=5.69x    frame=21947 fps=136 q=32.0 size=   31707kB time=00:15:15.52 bitrate= 283.7kbits/s dup=1 drop=0 speed=5.69x    frame=22034 fps=137 q=32.0 size=   31794kB time=00:15:19.14 bitrate= 283.4kbits/s dup=1 drop=0 speed=5.69x    frame=22086 fps=136 q=32.0 size=   31880kB time=00:15:21.32 bitrate= 283.5kbits/s dup=1 drop=0 speed=5.69x    frame=22151 fps=136 q=32.0 size=   32008kB time=00:15:24.05 bitrate= 283.8kbits/s dup=1 drop=0 speed=5.69x    frame=22236 fps=136 q=32.0 size=   32168kB time=00:15:27.59 bitrate= 284.1kbits/s dup=1 drop=0 speed=5.69x    frame=22318 fps=137 q=32.0 size=   32278kB time=00:15:31.00 bitrate= 284.0kbits/s dup=1 drop=0 speed=5.69x    frame=22397 fps=137 q=32.0 size=   32407kB time=00:15:34.29 bitrate= 284.1kbits/s dup=1 drop=0 speed= 5.7x    frame=22454 fps=136 q=32.0 size=   32526kB time=00:15:36.68 bitrate= 284.5kbits/s dup=1 drop=0 speed=5.69x    frame=22527 fps=136 q=32.0 size=   32663kB time=00:15:39.71 bitrate= 284.7kbits/s dup=1 drop=0 speed=5.69x    frame=22593 fps=136 q=32.0 size=   32767kB time=00:15:42.44 bitrate= 284.8kbits/s dup=1 drop=0 speed=5.69x    frame=22684 fps=137 q=32.0 size=   32891kB time=00:15:46.28 bitrate= 284.7kbits/s dup=1 drop=0 speed= 5.7x    frame=22771 fps=137 q=32.0 size=   33009kB time=00:15:49.91 bitrate= 284.7kbits/s dup=1 drop=0 speed= 5.7x    frame=22849 fps=137 q=32.0 size=   33171kB time=00:15:53.15 bitrate= 285.1kbits/s dup=1 drop=0 speed= 5.7x    frame=22913 fps=137 q=32.0 size=   33313kB time=00:15:55.79 bitrate= 285.5kbits/s dup=1 drop=0 speed= 5.7x    frame=23005 fps=137 q=32.0 size=   33447kB time=00:15:59.63 bitrate= 285.5kbits/s dup=1 drop=0 speed=5.71x    frame=23086 fps=137 q=32.0 size=   33560kB time=00:16:03.05 bitrate= 285.5kbits/s dup=1 drop=0 speed=5.71x    frame=23162 fps=137 q=32.0 size=   33675kB time=00:16:06.20 bitrate= 285.5kbits/s dup=1 drop=0 speed=5.71x    frame=23234 fps=137 q=32.0 size=   33810kB time=00:16:09.19 bitrate= 285.8kbits/s dup=1 drop=0 speed=5.71x    frame=23299 fps=137 q=32.0 size=   33917kB time=00:16:11.92 bitrate= 285.9kbits/s dup=1 drop=0 speed=5.71x    frame=23358 fps=137 q=32.0 size=   34026kB time=00:16:14.35 bitrate= 286.1kbits/s dup=1 drop=0 speed=5.71x    frame=23416 fps=137 q=32.0 size=   34097kB time=00:16:16.79 bitrate= 286.0kbits/s dup=1 drop=0 speed= 5.7x    frame=23472 fps=137 q=32.0 size=   34233kB time=00:16:19.13 bitrate= 286.4kbits/s dup=1 drop=0 speed= 5.7x    frame=23569 fps=137 q=32.0 size=   34324kB time=00:16:23.19 bitrate= 286.0kbits/s dup=1 drop=0 speed=5.71x    frame=23654 fps=137 q=32.0 size=   34461kB time=00:16:26.73 bitrate= 286.1kbits/s dup=1 drop=0 speed=5.71x    frame=23740 fps=137 q=32.0 size=   34564kB time=00:16:30.31 bitrate= 285.9kbits/s dup=1 drop=0 speed=5.72x    frame=23813 fps=137 q=32.0 size=   34661kB time=00:16:33.34 bitrate= 285.8kbits/s dup=1 drop=0 speed=5.72x    frame=23899 fps=137 q=32.0 size=   34770kB time=00:16:36.92 bitrate= 285.7kbits/s dup=1 drop=0 speed=5.72x    frame=23954 fps=137 q=32.0 size=   34894kB time=00:16:39.23 bitrate= 286.1kbits/s dup=1 drop=0 speed=5.72x    frame=24005 fps=137 q=32.0 size=   34960kB time=00:16:41.36 bitrate= 286.0kbits/s dup=1 drop=0 speed=5.71x    frame=24050 fps=137 q=32.0 size=   35056kB time=00:16:43.24 bitrate= 286.2kbits/s dup=1 drop=0 speed=5.71x    frame=24117 fps=137 q=32.0 size=   35157kB time=00:16:46.01 bitrate= 286.3kbits/s dup=1 drop=0 speed=5.71x    frame=24173 fps=137 q=32.0 size=   35256kB time=00:16:48.36 bitrate= 286.4kbits/s dup=1 drop=0 speed= 5.7x    frame=24269 fps=137 q=32.0 size=   35385kB time=00:16:52.37 bitrate= 286.3kbits/s dup=1 drop=0 speed=5.71x    frame=24339 fps=137 q=32.0 size=   35520kB time=00:16:55.27 bitrate= 286.6kbits/s dup=1 drop=0 speed=5.71x    frame=24395 fps=137 q=32.0 size=   35641kB time=00:16:57.66 bitrate= 286.9kbits/s dup=1 drop=0 speed=5.71x    frame=24444 fps=137 q=32.0 size=   35738kB time=00:16:59.67 bitrate= 287.1kbits/s dup=1 drop=0 speed= 5.7x    frame=24509 fps=137 q=32.0 size=   35851kB time=00:17:02.40 bitrate= 287.3kbits/s dup=1 drop=0 speed= 5.7x    frame=24603 fps=137 q=32.0 size=   35997kB time=00:17:06.32 bitrate= 287.3kbits/s dup=1 drop=0 speed=5.71x    frame=24704 fps=137 q=32.0 size=   36103kB time=00:17:10.50 bitrate= 287.0kbits/s dup=1 drop=0 speed=5.71x    frame=24827 fps=137 q=32.0 size=   36203kB time=00:17:15.62 bitrate= 286.4kbits/s dup=1 drop=0 speed=5.73x    frame=24942 fps=138 q=32.0 size=   36310kB time=00:17:20.44 bitrate= 285.9kbits/s dup=1 drop=0 speed=5.74x    frame=25067 fps=138 q=32.0 size=   36400kB time=00:17:25.65 bitrate= 285.2kbits/s dup=1 drop=0 speed=5.75x    frame=25186 fps=138 q=32.0 size=   36527kB time=00:17:30.60 bitrate= 284.8kbits/s dup=1 drop=0 speed=5.76x    frame=25285 fps=138 q=32.0 size=   36606kB time=00:17:34.74 bitrate= 284.3kbits/s dup=1 drop=0 speed=5.77x    frame=25392 fps=138 q=32.0 size=   36709kB time=00:17:39.22 bitrate= 283.9kbits/s dup=1 drop=0 speed=5.78x    frame=25498 fps=139 q=32.0 size=   36837kB time=00:17:43.61 bitrate= 283.7kbits/s dup=1 drop=0 speed=5.78x    frame=25554 fps=139 q=32.0 size=   36986kB time=00:17:45.96 bitrate= 284.2kbits/s dup=1 drop=0 speed=5.78x    frame=25656 fps=139 q=32.0 size=   37065kB time=00:17:50.23 bitrate= 283.7kbits/s dup=1 drop=0 speed=5.79x    frame=25738 fps=139 q=32.0 size=   37189kB time=00:17:53.64 bitrate= 283.8kbits/s dup=1 drop=0 speed=5.79x    frame=25824 fps=139 q=32.0 size=   37292kB time=00:17:57.22 bitrate= 283.6kbits/s dup=1 drop=0 speed=5.79x    frame=25921 fps=139 q=32.0 size=   37447kB time=00:18:01.28 bitrate= 283.7kbits/s dup=1 drop=0 speed= 5.8x    frame=25996 fps=139 q=32.0 size=   37556kB time=00:18:04.39 bitrate= 283.7kbits/s dup=1 drop=0 speed= 5.8x    frame=26091 fps=139 q=32.0 size=   37662kB time=00:18:08.36 bitrate= 283.5kbits/s dup=1 drop=0 speed=5.81x    frame=26179 fps=139 q=32.0 size=   37773kB time=00:18:12.03 bitrate= 283.4kbits/s dup=1 drop=0 speed=5.81x    frame=26286 fps=140 q=32.0 size=   37851kB time=00:18:16.51 bitrate= 282.8kbits/s dup=1 drop=0 speed=5.82x    frame=26369 fps=140 q=32.0 size=   37991kB time=00:18:19.96 bitrate= 282.9kbits/s dup=1 drop=0 speed=5.82x    frame=26474 fps=140 q=32.0 size=   38074kB time=00:18:24.32 bitrate= 282.4kbits/s dup=1 drop=0 speed=5.83x    frame=26551 fps=140 q=32.0 size=   38211kB time=00:18:27.56 bitrate= 282.6kbits/s dup=1 drop=0 speed=5.83x    frame=26622 fps=140 q=32.0 size=   38360kB time=00:18:30.50 bitrate= 283.0kbits/s dup=1 drop=0 speed=5.83x    frame=26695 fps=140 q=32.0 size=   38438kB time=00:18:33.53 bitrate= 282.8kbits/s dup=1 drop=0 speed=5.83x    frame=26729 fps=140 q=32.0 size=   38534kB time=00:18:34.98 bitrate= 283.1kbits/s dup=1 drop=0 speed=5.82x    frame=26780 fps=139 q=32.0 size=   38646kB time=00:18:37.12 bitrate= 283.4kbits/s dup=1 drop=0 speed=5.82x    frame=26850 fps=139 q=32.0 size=   38765kB time=00:18:40.02 bitrate= 283.5kbits/s dup=1 drop=0 speed=5.82x    frame=26905 fps=139 q=32.0 size=   38894kB time=00:18:42.28 bitrate= 283.9kbits/s dup=1 drop=0 speed=5.81x    frame=26963 fps=139 q=32.0 size=   38993kB time=00:18:44.71 bitrate= 284.0kbits/s dup=1 drop=0 speed=5.81x    frame=27074 fps=140 q=32.0 size=   39096kB time=00:18:49.36 bitrate= 283.6kbits/s dup=1 drop=0 speed=5.82x    frame=27169 fps=140 q=32.0 size=   39170kB time=00:18:53.33 bitrate= 283.1kbits/s dup=1 drop=0 speed=5.83x    frame=27276 fps=140 q=32.0 size=   39266kB time=00:18:57.81 bitrate= 282.7kbits/s dup=1 drop=0 speed=5.83x    frame=27401 fps=140 q=32.0 size=   39353kB time=00:19:03.01 bitrate= 282.0kbits/s dup=1 drop=0 speed=5.84x    frame=27480 fps=140 q=32.0 size=   39417kB time=00:19:06.30 bitrate= 281.7kbits/s dup=1 drop=0 speed=5.85x    frame=27518 fps=140 q=32.0 size=   39549kB time=00:19:07.88 bitrate= 282.2kbits/s dup=1 drop=0 speed=5.84x    frame=27563 fps=140 q=32.0 size=   39670kB time=00:19:09.76 bitrate= 282.6kbits/s dup=1 drop=0 speed=5.83x    frame=27680 fps=140 q=32.0 size=   39756kB time=00:19:14.62 bitrate= 282.1kbits/s dup=1 drop=0 speed=5.84x    frame=27799 fps=140 q=32.0 size=   39872kB time=00:19:19.61 bitrate= 281.7kbits/s dup=1 drop=0 speed=5.85x    frame=27929 fps=141 q=32.0 size=   39988kB time=00:19:25.03 bitrate= 281.2kbits/s dup=1 drop=0 speed=5.87x    frame=28031 fps=141 q=32.0 size=   40104kB time=00:19:29.25 bitrate= 281.0kbits/s dup=1 drop=0 speed=5.87x    frame=28155 fps=141 q=32.0 size=   40237kB time=00:19:34.46 bitrate= 280.7kbits/s dup=1 drop=0 speed=5.88x    frame=28288 fps=141 q=32.0 size=   40345kB time=00:19:40.01 bitrate= 280.1kbits/s dup=1 drop=0 speed= 5.9x    frame=28418 fps=142 q=32.0 size=   40444kB time=00:19:45.43 bitrate= 279.5kbits/s dup=1 drop=0 speed=5.91x    frame=28521 fps=142 q=32.0 size=   40583kB time=00:19:49.73 bitrate= 279.4kbits/s dup=1 drop=0 speed=5.92x    frame=28589 fps=142 q=32.0 size=   40721kB time=00:19:52.55 bitrate= 279.7kbits/s dup=1 drop=0 speed=5.92x    frame=28666 fps=142 q=32.0 size=   40826kB time=00:19:55.75 bitrate= 279.7kbits/s dup=1 drop=0 speed=5.92x    frame=28762 fps=142 q=32.0 size=   40954kB time=00:19:59.76 bitrate= 279.6kbits/s dup=1 drop=0 speed=5.92x    frame=28869 fps=142 q=32.0 size=   41061kB time=00:20:04.24 bitrate= 279.3kbits/s dup=1 drop=0 speed=5.93x    frame=28965 fps=142 q=32.0 size=   41138kB time=00:20:08.21 bitrate= 278.9kbits/s dup=1 drop=0 speed=5.93x    frame=29047 fps=142 q=32.0 size=   41230kB time=00:20:11.67 bitrate= 278.8kbits/s dup=1 drop=0 speed=5.94x    frame=29105 fps=142 q=32.0 size=   41325kB time=00:20:14.10 bitrate= 278.8kbits/s dup=1 drop=0 speed=5.93x    frame=29199 fps=142 q=32.0 size=   41413kB time=00:20:17.98 bitrate= 278.5kbits/s dup=1 drop=0 speed=5.94x    frame=29301 fps=142 q=32.0 size=   41534kB time=00:20:22.25 bitrate= 278.4kbits/s dup=1 drop=0 speed=5.94x    frame=29391 fps=143 q=32.0 size=   41633kB time=00:20:26.00 bitrate= 278.2kbits/s dup=1 drop=0 speed=5.95x    frame=29510 fps=143 q=32.0 size=   41746kB time=00:20:30.99 bitrate= 277.8kbits/s dup=1 drop=0 speed=5.96x    frame=29611 fps=143 q=32.0 size=   41873kB time=00:20:35.17 bitrate= 277.7kbits/s dup=1 drop=0 speed=5.96x    frame=29708 fps=143 q=32.0 size=   41983kB time=00:20:39.23 bitrate= 277.5kbits/s dup=1 drop=0 speed=5.97x    frame=29771 fps=143 q=32.0 size=   42089kB time=00:20:41.83 bitrate= 277.7kbits/s dup=1 drop=0 speed=5.96x    frame=29834 fps=143 q=32.0 size=   42177kB time=00:20:44.48 bitrate= 277.6kbits/s dup=1 drop=0 speed=5.96x    frame=29922 fps=143 q=32.0 size=   42287kB time=00:20:48.15 bitrate= 277.5kbits/s dup=1 drop=0 speed=5.96x    frame=30008 fps=143 q=32.0 size=   42383kB time=00:20:51.73 bitrate= 277.4kbits/s dup=1 drop=0 speed=5.97x    frame=30060 fps=143 q=32.0 size=   42469kB time=00:20:53.91 bitrate= 277.5kbits/s dup=1 drop=0 speed=5.96x    frame=30121 fps=143 q=32.0 size=   42545kB time=00:20:56.42 bitrate= 277.4kbits/s dup=1 drop=0 speed=5.96x    frame=30211 fps=143 q=32.0 size=   42622kB time=00:21:00.22 bitrate= 277.1kbits/s dup=1 drop=0 speed=5.96x    frame=30280 fps=143 q=32.0 size=   42726kB time=00:21:03.08 bitrate= 277.1kbits/s dup=1 drop=0 speed=5.96x    frame=30342 fps=143 q=32.0 size=   42829kB time=00:21:05.64 bitrate= 277.2kbits/s dup=1 drop=0 speed=5.96x    frame=30404 fps=143 q=32.0 size=   42924kB time=00:21:08.24 bitrate= 277.3kbits/s dup=1 drop=0 speed=5.96x    frame=30477 fps=143 q=32.0 size=   43006kB time=00:21:11.31 bitrate= 277.1kbits/s dup=1 drop=0 speed=5.96x    frame=30551 fps=143 q=32.0 size=   43081kB time=00:21:14.39 bitrate= 276.9kbits/s dup=1 drop=0 speed=5.96x    frame=30628 fps=143 q=32.0 size=   43175kB time=00:21:17.59 bitrate= 276.8kbits/s dup=1 drop=0 speed=5.96x    frame=30697 fps=143 q=32.0 size=   43238kB time=00:21:20.49 bitrate= 276.6kbits/s dup=1 drop=0 speed=5.96x    frame=30739 fps=143 q=32.0 size=   43294kB time=00:21:22.24 bitrate= 276.6kbits/s dup=1 drop=0 speed=5.95x    frame=30766 fps=143 q=32.0 size=   43380kB time=00:21:23.35 bitrate= 276.9kbits/s dup=1 drop=0 speed=5.95x    frame=30798 fps=142 q=32.0 size=   43468kB time=00:21:24.71 bitrate= 277.2kbits/s dup=1 drop=0 speed=5.94x    frame=30864 fps=142 q=32.0 size=   43588kB time=00:21:27.44 bitrate= 277.4kbits/s dup=1 drop=0 speed=5.94x    frame=30949 fps=142 q=32.0 size=   43651kB time=00:21:30.98 bitrate= 277.0kbits/s dup=1 drop=0 speed=5.94x    frame=31000 fps=142 q=32.0 size=   43768kB time=00:21:33.12 bitrate= 277.3kbits/s dup=1 drop=0 speed=5.94x    frame=31046 fps=142 q=32.0 size=   43845kB time=00:21:35.04 bitrate= 277.3kbits/s dup=1 drop=0 speed=5.93x    frame=31097 fps=142 q=32.0 size=   43917kB time=00:21:37.13 bitrate= 277.4kbits/s dup=1 drop=0 speed=5.93x    frame=31150 fps=142 q=32.0 size=   43987kB time=00:21:39.39 bitrate= 277.3kbits/s dup=1 drop=0 speed=5.92x    frame=31227 fps=142 q=32.0 size=   44082kB time=00:21:42.59 bitrate= 277.2kbits/s dup=1 drop=0 speed=5.92x    frame=31292 fps=142 q=32.0 size=   44217kB time=00:21:45.28 bitrate= 277.5kbits/s dup=1 drop=0 speed=5.92x    frame=31343 fps=142 q=32.0 size=   44340kB time=00:21:47.41 bitrate= 277.8kbits/s dup=1 drop=0 speed=5.92x    frame=31385 fps=142 q=32.0 size=   44458kB time=00:21:49.16 bitrate= 278.2kbits/s dup=1 drop=0 speed=5.91x    frame=31426 fps=142 q=32.0 size=   44572kB time=00:21:50.87 bitrate= 278.5kbits/s dup=1 drop=0 speed=5.91x    frame=31472 fps=141 q=32.0 size=   44695kB time=00:21:52.79 bitrate= 278.9kbits/s dup=1 drop=0 speed= 5.9x    frame=31524 fps=141 q=32.0 size=   44844kB time=00:21:54.96 bitrate= 279.4kbits/s dup=1 drop=0 speed= 5.9x    frame=31583 fps=141 q=32.0 size=   44970kB time=00:21:57.44 bitrate= 279.6kbits/s dup=1 drop=0 speed= 5.9x    frame=31656 fps=141 q=32.0 size=   45104kB time=00:22:00.47 bitrate= 279.8kbits/s dup=1 drop=0 speed= 5.9x    frame=31705 fps=141 q=32.0 size=   45239kB time=00:22:02.47 bitrate= 280.2kbits/s dup=1 drop=0 speed=5.89x    frame=31748 fps=141 q=32.0 size=   45376kB time=00:22:04.31 bitrate= 280.7kbits/s dup=1 drop=0 speed=5.89x    frame=31806 fps=141 q=32.0 size=   45511kB time=00:22:06.74 bitrate= 281.0kbits/s dup=1 drop=0 speed=5.88x    frame=31870 fps=141 q=32.0 size=   45676kB time=00:22:09.38 bitrate= 281.5kbits/s dup=1 drop=0 speed=5.88x    frame=31934 fps=141 q=32.0 size=   45780kB time=00:22:12.07 bitrate= 281.5kbits/s dup=1 drop=0 speed=5.88x    frame=31995 fps=141 q=32.0 size=   45902kB time=00:22:14.63 bitrate= 281.7kbits/s dup=1 drop=0 speed=5.88x    frame=32052 fps=141 q=32.0 size=   46041kB time=00:22:16.98 bitrate= 282.1kbits/s dup=1 drop=0 speed=5.88x    frame=32107 fps=141 q=32.0 size=   46161kB time=00:22:19.28 bitrate= 282.4kbits/s dup=1 drop=0 speed=5.87x    frame=32156 fps=141 q=32.0 size=   46278kB time=00:22:21.33 bitrate= 282.6kbits/s dup=1 drop=0 speed=5.87x    frame=32220 fps=141 q=32.0 size=   46361kB time=00:22:23.97 bitrate= 282.6kbits/s dup=1 drop=0 speed=5.87x    frame=32289 fps=141 q=32.0 size=   46528kB time=00:22:26.88 bitrate= 283.0kbits/s dup=1 drop=0 speed=5.87x    frame=32342 fps=141 q=32.0 size=   46615kB time=00:22:29.09 bitrate= 283.1kbits/s dup=1 drop=0 speed=5.86x    frame=32380 fps=140 q=32.0 size=   46700kB time=00:22:30.67 bitrate= 283.2kbits/s dup=1 drop=0 speed=5.86x    frame=32422 fps=140 q=32.0 size=   46801kB time=00:22:32.42 bitrate= 283.5kbits/s dup=1 drop=0 speed=5.85x    frame=32474 fps=140 q=32.0 size=   46909kB time=00:22:34.60 bitrate= 283.7kbits/s dup=1 drop=0 speed=5.85x    frame=32536 fps=140 q=32.0 size=   47051kB time=00:22:37.16 bitrate= 284.0kbits/s dup=1 drop=0 speed=5.85x    frame=32591 fps=140 q=32.0 size=   47113kB time=00:22:39.46 bitrate= 283.9kbits/s dup=1 drop=0 speed=5.84x    frame=32636 fps=140 q=32.0 size=   47215kB time=00:22:41.34 bitrate= 284.1kbits/s dup=1 drop=0 speed=5.84x    frame=32665 fps=140 q=32.0 size=   47316kB time=00:22:42.53 bitrate= 284.5kbits/s dup=1 drop=0 speed=5.83x    frame=32710 fps=140 q=32.0 size=   47414kB time=00:22:44.45 bitrate= 284.7kbits/s dup=1 drop=0 speed=5.82x    frame=32771 fps=140 q=32.0 size=   47513kB time=00:22:46.97 bitrate= 284.7kbits/s dup=1 drop=0 speed=5.82x    frame=32847 fps=140 q=32.0 size=   47615kB time=00:22:50.13 bitrate= 284.7kbits/s dup=1 drop=0 speed=5.82x    frame=32911 fps=140 q=32.0 size=   47743kB time=00:22:52.86 bitrate= 284.9kbits/s dup=1 drop=0 speed=5.82x    frame=32963 fps=139 q=32.0 size=   47834kB time=00:22:54.99 bitrate= 285.0kbits/s dup=1 drop=0 speed=5.82x    frame=33021 fps=139 q=32.0 size=   47944kB time=00:22:57.38 bitrate= 285.1kbits/s dup=1 drop=0 speed=5.82x    frame=33065 fps=139 q=32.0 size=   48037kB time=00:22:59.26 bitrate= 285.3kbits/s dup=1 drop=0 speed=5.81x    frame=33106 fps=139 q=32.0 size=   48131kB time=00:23:00.97 bitrate= 285.5kbits/s dup=1 drop=0 speed=5.81x    frame=33160 fps=139 q=32.0 size=   48242kB time=00:23:03.23 bitrate= 285.7kbits/s dup=1 drop=0 speed= 5.8x    frame=33266 fps=139 q=32.0 size=   48352kB time=00:23:07.62 bitrate= 285.5kbits/s dup=1 drop=0 speed=5.81x    frame=33331 fps=139 q=32.0 size=   48460kB time=00:23:10.35 bitrate= 285.5kbits/s dup=1 drop=0 speed=5.81x    frame=33405 fps=139 q=32.0 size=   48603kB time=00:23:13.43 bitrate= 285.7kbits/s dup=1 drop=0 speed=5.81x    frame=33481 fps=139 q=32.0 size=   48687kB time=00:23:16.58 bitrate= 285.6kbits/s dup=1 drop=0 speed=5.81x    frame=33571 fps=139 q=32.0 size=   48807kB time=00:23:20.34 bitrate= 285.5kbits/s dup=1 drop=0 speed=5.81x    frame=33658 fps=139 q=32.0 size=   48904kB time=00:23:23.96 bitrate= 285.4kbits/s dup=1 drop=0 speed=5.82x    frame=33748 fps=139 q=32.0 size=   48985kB time=00:23:27.72 bitrate= 285.1kbits/s dup=1 drop=0 speed=5.82x    frame=33811 fps=139 q=32.0 size=   49110kB time=00:23:30.36 bitrate= 285.3kbits/s dup=1 drop=0 speed=5.82x    frame=33853 fps=139 q=32.0 size=   49249kB time=00:23:32.11 bitrate= 285.7kbits/s dup=1 drop=0 speed=5.81x    frame=33899 fps=139 q=32.0 size=   49429kB time=00:23:34.03 bitrate= 286.4kbits/s dup=1 drop=0 speed=5.81x    frame=33973 fps=139 q=32.0 size=   49567kB time=00:23:37.11 bitrate= 286.5kbits/s dup=1 drop=0 speed=5.81x    frame=34015 fps=139 q=32.0 size=   49681kB time=00:23:38.85 bitrate= 286.8kbits/s dup=1 drop=0 speed= 5.8x    frame=34070 fps=139 q=32.0 size=   49768kB time=00:23:41.16 bitrate= 286.9kbits/s dup=1 drop=0 speed= 5.8x    frame=34106 fps=139 q=32.0 size=   49883kB time=00:23:42.65 bitrate= 287.2kbits/s dup=1 drop=0 speed=5.79x    frame=34151 fps=139 q=32.0 size=   49963kB time=00:23:44.53 bitrate= 287.3kbits/s dup=1 drop=0 speed=5.79x    frame=34187 fps=139 q=32.0 size=   50013kB time=00:23:46.02 bitrate= 287.3kbits/s dup=1 drop=0 speed=5.78x    frame=34230 fps=139 q=32.0 size=   50062kB time=00:23:47.81 bitrate= 287.2kbits/s dup=1 drop=0 speed=5.78x    frame=34254 fps=138 q=32.0 size=   50129kB time=00:23:48.84 bitrate= 287.4kbits/s dup=1 drop=0 speed=5.77x    frame=34301 fps=138 q=32.0 size=   50229kB time=00:23:50.80 bitrate= 287.6kbits/s dup=1 drop=0 speed=5.77x    frame=34323 fps=138 q=32.0 size=   50337kB time=00:23:51.70 bitrate= 288.0kbits/s dup=1 drop=0 speed=5.76x    frame=34342 fps=138 q=32.0 size=   50443kB time=00:23:52.51 bitrate= 288.5kbits/s dup=1 drop=0 speed=5.75x    frame=34371 fps=138 q=32.0 size=   50568kB time=00:23:53.70 bitrate= 288.9kbits/s dup=1 drop=0 speed=5.74x    frame=34412 fps=138 q=32.0 size=   50736kB time=00:23:55.41 bitrate= 289.6kbits/s dup=1 drop=0 speed=5.74x    frame=34475 fps=137 q=32.0 size=   50863kB time=00:23:58.05 bitrate= 289.7kbits/s dup=1 drop=0 speed=5.73x    frame=34552 fps=138 q=32.0 size=   50966kB time=00:24:01.25 bitrate= 289.7kbits/s dup=1 drop=0 speed=5.74x    frame=34583 fps=137 q=32.0 size=   51117kB time=00:24:02.58 bitrate= 290.3kbits/s dup=1 drop=0 speed=5.73x    frame=34632 fps=137 q=32.0 size=   51274kB time=00:24:04.58 bitrate= 290.8kbits/s dup=1 drop=0 speed=5.73x    frame=34693 fps=137 q=32.0 size=   51388kB time=00:24:07.14 bitrate= 290.9kbits/s dup=1 drop=0 speed=5.72x    frame=34732 fps=137 q=32.0 size=   51510kB time=00:24:08.76 bitrate= 291.3kbits/s dup=1 drop=0 speed=5.72x    frame=34791 fps=137 q=32.0 size=   51589kB time=00:24:11.24 bitrate= 291.2kbits/s dup=1 drop=0 speed=5.72x    frame=34858 fps=137 q=32.0 size=   51748kB time=00:24:14.05 bitrate= 291.5kbits/s dup=1 drop=0 speed=5.72x    frame=34959 fps=137 q=32.0 size=   51863kB time=00:24:18.19 bitrate= 291.4kbits/s dup=1 drop=0 speed=5.72x    frame=35044 fps=137 q=32.0 size=   52009kB time=00:24:21.78 bitrate= 291.5kbits/s dup=1 drop=0 speed=5.72x    frame=35130 fps=137 q=32.0 size=   52125kB time=00:24:25.36 bitrate= 291.4kbits/s dup=1 drop=0 speed=5.73x    [mp4 @ 0x26c5600] Starting second pass: moving the moov atom to the beginning of the file
frame=35183 fps=137 q=-1.0 Lsize=   53052kB time=00:24:27.37 bitrate= 296.2kbits/s dup=1 drop=0 speed=5.72x    
video:42809kB audio:9410kB subtitle:0kB other streams:0kB global headers:0kB muxing overhead: 1.596750%
[libx264 @ 0x2736020] frame I:307   Avg QP:22.08  size: 18516
[libx264 @ 0x2736020] frame P:11652 Avg QP:24.95  size:  2665
[libx264 @ 0x2736020] frame B:23224 Avg QP:29.17  size:   306
[libx264 @ 0x2736020] consecutive B-frames:  4.3% 11.7% 33.6% 50.3%
[libx264 @ 0x2736020] mb I  I16..4: 23.5% 53.0% 23.4%
[libx264 @ 0x2736020] mb P  I16..4:  4.7%  4.5%  1.1%  P16..4: 31.3%  4.6%  4.2%  0.2%  0.0%    skip:49.6%
[libx264 @ 0x2736020] mb B  I16..4:  0.3%  0.2%  0.1%  B16..8: 12.7%  0.7%  0.1%  direct: 0.5%  skip:85.5%  L0:37.7% L1:60.2% BI: 2.0%
[libx264 @ 0x2736020] 8x8 transform intra:45.5% inter:56.5%
[libx264 @ 0x2736020] coded y,uvDC,uvAC intra: 29.7% 53.3% 11.8% inter: 2.1% 4.4% 0.1%
[libx264 @ 0x2736020] i16 v,h,dc,p: 40% 33% 17%  9%
[libx264 @ 0x2736020] i8 v,h,dc,ddl,ddr,vr,hd,vl,hu: 23% 21% 42%  2%  2%  2%  2%  2%  3%
[libx264 @ 0x2736020] i4 v,h,dc,ddl,ddr,vr,hd,vl,hu: 29% 22% 19%  5%  5%  5%  5%  5%  5%
[libx264 @ 0x2736020] i8c dc,h,v,p: 44% 28% 22%  5%
[libx264 @ 0x2736020] Weighted P-Frames: Y:2.0% UV:1.4%
[libx264 @ 0x2736020] ref P L0: 63.3% 10.1% 11.8%  4.1%  3.2%  2.8%  2.6%  1.3%  0.6%  0.0%
[libx264 @ 0x2736020] ref B L0: 83.2%  7.2%  4.4%  1.7%  1.5%  1.1%  0.8%
[libx264 @ 0x2736020] ref B L1: 92.2%  7.8%
[libx264 @ 0x2736020] kb/s:238.98
